<?xml version="1.0" encoding="UTF-8"?>
<svg id="Copita_Glass" xmlns="http://www.w3.org/2000/svg" version="1.1" viewBox="0 0 512 512">
  <!-- Generator: Adobe Illustrator 30.4.0, SVG Export Plug-In . SVG Version: 2.1.3 Build 80)  -->
  <path d="M334.22,467.87l-27.62.48-128.41.08c-5.96-8.5-1.11-21.51,8.29-24.35l33.51-10.1c10.07-3.04,18.88-11.05,18.89-22.86l.12-97.24-1.02-17.67c-.65-11.16-3.99-21.91-12.42-29.68l-25.65-23.66c-11-10.15-19.58-22.45-22.76-37.3-11.72-54.7,31.54-95.45,14.58-155.13-.72-2.52,1.39-6.86,4.62-6.86h118.16c1.63,0,4.09,1.04,4.8,1.67.95.85,1.25,4.2.85,5.44-14.83,46.19,14.57,89.54,16.63,131.68,1.15,23.62-7.35,45.29-25.11,60.5-11.02,9.44-36.92,31.46-37.43,46.14l-1.58,45.92c-.77,22.28-1.6,62.44,1.7,83.59,1.2,7.68,9.09,12.98,16.03,15.06l33.62,10.05c9.41,2.81,15.64,15.23,10.2,24.23ZM282.13,244.97c26.2-7.97,44.15-29.8,44.28-58.59.15-32.27-31.75-89.35-18.16-132.29l-104.41-.06c11.41,44.98-14.09,89.14-17.84,125.24-3.31,31.82,15.88,58.31,45.86,66.51,17.12,4.68,33.18,4.39,50.27-.81ZM323.34,458.05c-4.87-8.06-11.79-6.08-17.71-8.38l-22.07-7.33c-11.98-3.98-21.69-16.03-21.7-29.4l-.04-112.15c0-16.31,5.87-29.6,16.18-42.2l-22.08.8-21.14-.63c7.59,10.98,13.77,21.54,14.22,34.6l.9,26.25.24,90.56c.09,32.06-32.3,35.68-58.05,43.08-1.57.45-3.24,3.27-2.71,4.9l133.96-.11Z"/>
</svg>