<?xml version="1.0" encoding="UTF-8"?>
<svg id="Glencairn_Glass" xmlns="http://www.w3.org/2000/svg" version="1.1" viewBox="0 0 512 512">
  <!-- Generator: Adobe Illustrator 30.4.0, SVG Export Plug-In . SVG Version: 2.1.3 Build 80)  -->
  <path d="M320.71,425.58c-15.52,5.46-31.31,6.94-47.7,6.96l-33.72.04c-15.86.02-31.48-1.76-46.63-6.43-7.92-2.44-11.5-10.54-9.23-18.16,4.31-14.47,10.08-28.13,18.01-40.66,12.39-19.57-13.77-24.74-29.25-45.17-20.65-27.25-25.27-61.89-13.94-94.61,16.01-46.24,25.95-92.55,25.11-142.1-.06-3.44,3.32-6.03,6.64-6.03h132.45c4.18,0,6.09,3.79,6.1,7.36.18,44.46,7.9,89.42,22.76,130.88,17.54,48.91,8.79,97.23-35.45,126.76-8.75,5.84-9.6,15.58-4.55,23.9,6.86,11.3,29.24,50.27,9.38,57.24ZM313.73,332.63c16.92-14.2,28.43-28.54,33.25-50.18,4.71-22.93-.01-44.56-7.79-66.59-14.3-40.47-21.41-81.79-20.35-125.7l-124.02-.08-2.23,37.19c-3.27,33.02-10.08,64.1-21.34,95.44-7.34,20.43-9.86,42.13-4.76,63.33,5.15,21.43,19.85,37.37,36.8,49.96,15.3,11.36,31.68,17.11,50.66,17.67,22.52.67,42.07-6.18,59.77-21.04ZM280.16,421.04c13.45-1.06,26.03-1.2,39.15-6.68-3.75-15.02-9.92-27.95-17.78-40.99-3.17-5.25-4.91-12.45-5.75-17.38-22.25,12.6-55.9,10.7-80.11.77-.85,7.63-3.03,13.85-6.82,20.23s-22.69,37.67-9.28,40.11c29.41,5.34,51.04,6.27,80.59,3.94Z"/>
</svg>