<?xml version="1.0" encoding="UTF-8"?>
<svg id="ISO_Glass" xmlns="http://www.w3.org/2000/svg" version="1.1" viewBox="0 0 512 512">
  <!-- Generator: Adobe Illustrator 30.4.0, SVG Export Plug-In . SVG Version: 2.1.3 Build 80)  -->
  <path d="M171.82,424.3c-4.39-7.46-1.67-15.15,4.41-19.94,13.6-10.71,31.82-4.94,52.11-17.72,8.58-5.4,9.66-16.2,10.27-24.87,1.38-19.73-8.24-34.17-22.99-45.8l-14.86-11.72c-3.85-3.04-8.37-5.68-12.15-8.95-17.54-15.2-26.5-41.62-25.16-64.61,2.5-43.08,17.25-96.37,28.64-138.4,1.33-1.87,4.52-4.61,6.64-4.61l119.22.14c13.02,42.3,23.04,83.84,29.29,127.01,2.45,16.93,1.76,31.36-2.46,48.08-5.1,11.56-11.57,25.03-21.87,32.84l-25.78,19.55c-21.22,16.09-22.76,25.67-24.28,50.62-.7,11.55,3.13,20.71,14.93,24.63,9.48,3.15,19.49,5.74,29.73,7.38,7.98,1.28,15.63,4.9,19.78,11.8,2.18,3.63,2.71,11.61-.98,14.42l-164.51.14ZM298.21,298.19c12.84-4.95,21.74-14.2,29.42-25.84,8.53-12.94,10.25-28.06,9.9-44.04-2.54-23.25-6.18-45.76-11.96-68.54l-15.53-61.17-107.46-.14c-2.6,6.8-4.34,14.19-6.3,21.71l-6.71,25.74-4.56,19.37c-3.37,14.3-11.4,58.99-10.62,72.23,1.48,24.9,14.48,50.11,37.42,59.7,30,12.54,56.36,12.56,86.4.98ZM325.66,415.03c-4.51-7.59-10.74-6.67-16.69-8.04-21.42-7.82-42.94-6.14-47.14-31.2l1.07-23.04c.62-13.19,4.55-25.49,15.68-34.93l-45.13-.07,5.77,6.19c15.02,16.12,14.24,64.43-4.58,71.95-11.72,4.69-23.68,7.6-35.75,11.13-5.73,1.67-12.33.61-15.66,8.05l142.42-.04Z"/>
</svg>