<?xml version="1.0" encoding="UTF-8"?>
<svg id="NEAT_Glass" xmlns="http://www.w3.org/2000/svg" version="1.1" viewBox="0 0 512 512">
  <!-- Generator: Adobe Illustrator 30.2.1, SVG Export Plug-In . SVG Version: 2.1.1 Build 1)  -->
  <defs>
    <style>
      .st0 {
        stroke: #231815;
        stroke-miterlimit: 10;
        stroke-width: 5px;
      }
    </style>
  </defs>
  <path class="st0" d="M273.58,422.77c-11.74,1.04-23.24.77-34.81-.02l-9.32-.64c-16.81-1.15-33.28-2.9-49.68-6.54-9.81-2.18-18.8-5.46-27.55-9.94-3.23-1.66-5.95-3.65-8.76-5.87-6.84-5.4-11.02-12.82-11.59-21.41-.48-7.22,1.75-14.03,5.17-20.43l3.9-7.31c-13.56-9.3-22.02-15.28-31.4-28.45-11.63-16.34-15.4-36.36-11.11-55.77,3-13.6,9.34-25.8,17.78-37.08,9.56-12.76,20-23.54,18.61-40.86-1.31-16.32-10.63-34.5-22.31-46.09l-9.61-9.53c-3.14-3.11-6.66-5.97-7.06-10.68-.46-5.35,2.63-10.2,7.17-13.23,8.65-5.76,18.16-9.08,28.51-11.26,17.15-3.61,34.15-5.75,51.66-6.86l14.94-.95,9.07-.42,11.62-.46,16.7-.42h39.83s17.29.41,17.29.41l11.51.48,9.43.48,12.68.81c20.93,1.33,41.57,3.6,61.91,8.64,7.72,1.91,14.7,4.85,21.05,9.23,3.44,2.38,6.12,5.92,6.81,9.84.85,4.81-1,9-4.49,12.31l-6.01,5.71c-12.05,11.45-21.78,24.93-26.33,40.72-2.94,10.19-2.85,20.54,1.58,30.19,6.59,14.33,19.56,23.16,28.46,45.08,10.7,26.37,7.28,53.79-11.71,75.82-7.4,8.59-16.12,15.28-25.89,21.72l4.77,8.29c2.3,4.01,4.03,8.14,4.78,12.82,1.62,10.1-2.17,20.18-9.72,27.5-4.88,4.74-10.74,8.03-17.14,10.68-16.54,6.86-48.51,11.53-66.43,12.52l-8.79.49-5.51.49ZM330.12,145.32l8.8-.92c19.83-2.07,44.39-5.49,62.28-13.95,2.86-1.35,5.62-3.19,7.4-5.67,2.43-3.39,1.18-7.92-2.06-10.41-7.75-5.94-18.59-9.22-28.35-11.13l-5.19-1.02-4.8-.91c-1.74-.33-3.48-.57-5.3-.82l-6.72-.92-5.83-.78-10.75-1.1-11.47-.92-14.51-.82c-5.02-.28-9.98-.17-15.04-.56l-7.27-.56-71.76-.1-2.64.52c-5.91,1.17-12.92.27-19.23.65l-14.48.88-11.46.91c-3.31.26-6.5.61-9.82,1.06l-6.28.83-6.72.94-4.82.81-4.77.92-7.67,1.61c-9.38,1.96-18.27,5.24-26.08,10.71-2.34,1.64-3.29,4.28-3.18,6.93.08,2.14,1.42,4.54,3.62,6.05,25.62,17.62,104.72,20.24,137.08,20.99,8.98.21,17.53.17,26.42-.04l16.5-.39,28.09-1.46,16.02-1.33ZM397.09,242.22c-7.35-12.36-17.14-21.17-22.5-33.54-10.06-23.18,2.41-49.57,18.29-68.24-8.93,2.58-16.84,4.66-25.61,6.21-17.34,3.06-34.49,4.91-52.1,6l-16.11,1.01-16.84.5-18.46.4c-5.48.12-10.75.12-16.23,0l-21.06-.47-13.6-.45c-31.6-2-62.9-3.72-93.64-13.22,10.48,12.28,18.04,26.02,21.02,41.34,2.31,11.87.11,23.27-6.15,33.55-2.95,4.84-6.25,9.07-9.71,13.56-6.91,8.96-9.65,13.03-14.49,23.26-3.96,8.37-6.08,16.94-6.73,26.17-.96,13.51,3.04,26.68,10.31,38.2,5.7,9.04,12.96,16.13,21.64,22.55,31.09,22.99,67.56,30.65,106.08,32.31,19.37.84,47.17.03,65.94-3.9l10.33-2.16c21.78-4.56,41.78-13.37,59.43-26.51,9.66-7.19,17.86-15.52,23.72-25.91,13-23.07,9.65-48.47-3.54-70.65ZM141.24,387.12c2.81,4.78,6.63,8.42,11.5,11.13,9.48,5.28,19.46,9.01,30.32,11.31,19.4,4.11,38.72,5.93,58.55,6.78,10.77.46,21.17.66,31.8-.07l13.29-.92,11.43-1.01c15.03-1.32,29.67-3.89,44.12-7.82,7.16-1.95,13.65-4.8,19.67-8.73,11.7-7.64,16.64-20.93,9.93-33.41l-5.81-10.8c-27.04,15.78-64.2,22.71-95.28,23.77l-4.4.15c-7.18.25-14.24.28-21.42-.01l-3.97-.16-9.1-.35c-2.67-.1-5.38-.46-8.14-.75-27.54-2.84-52.9-8.72-76.98-22.11-6.25,11.42-11.65,20.2-5.52,33Z"/>
</svg>