<?xml version="1.0" encoding="UTF-8"?>
<svg xmlns="http://www.w3.org/2000/svg" version="1.1" viewBox="0 0 512 512">
  <!-- Generator: Adobe Illustrator 30.2.1, SVG Export Plug-In . SVG Version: 2.1.1 Build 1)  -->
  <defs>
    <style>
      .st0 {
        display: none;
      }
    </style>
  </defs>
  <g id="Glencairn_Glass" class="st0">
    <path d="M320.71,425.58c-15.52,5.46-31.31,6.94-47.7,6.96l-33.72.04c-15.86.02-31.48-1.76-46.63-6.43-7.92-2.44-11.5-10.54-9.23-18.16,4.31-14.47,10.08-28.13,18.01-40.66,12.39-19.57-13.77-24.74-29.25-45.17-20.65-27.25-25.27-61.89-13.94-94.61,16.01-46.24,25.95-92.55,25.11-142.1-.06-3.44,3.32-6.03,6.64-6.03h132.45c4.18,0,6.09,3.79,6.1,7.36.18,44.46,7.9,89.42,22.76,130.88,17.54,48.91,8.79,97.23-35.45,126.76-8.75,5.84-9.6,15.58-4.55,23.9,6.86,11.3,29.24,50.27,9.38,57.24ZM313.73,332.63c16.92-14.2,28.43-28.54,33.25-50.18,4.71-22.93-.01-44.56-7.79-66.59-14.3-40.47-21.41-81.79-20.35-125.7l-124.02-.08-2.23,37.19c-3.27,33.02-10.08,64.1-21.34,95.44-7.34,20.43-9.86,42.13-4.76,63.33,5.15,21.43,19.85,37.37,36.8,49.96,15.3,11.36,31.68,17.11,50.66,17.67,22.52.67,42.07-6.18,59.77-21.04ZM280.16,421.04c13.45-1.06,26.03-1.2,39.15-6.68-3.75-15.02-9.92-27.95-17.78-40.99-3.17-5.25-4.91-12.45-5.75-17.38-22.25,12.6-55.9,10.7-80.11.77-.85,7.63-3.03,13.85-6.82,20.23s-22.69,37.67-9.28,40.11c29.41,5.34,51.04,6.27,80.59,3.94Z"/>
  </g>
  <g id="Copita_Glass" class="st0">
    <path d="M334.22,467.87l-27.62.48-128.41.08c-5.96-8.5-1.11-21.51,8.29-24.35l33.51-10.1c10.07-3.04,18.88-11.05,18.89-22.86l.12-97.24-1.02-17.67c-.65-11.16-3.99-21.91-12.42-29.68l-25.65-23.66c-11-10.15-19.58-22.45-22.76-37.3-11.72-54.7,31.54-95.45,14.58-155.13-.72-2.52,1.39-6.86,4.62-6.86h118.16c1.63,0,4.09,1.04,4.8,1.67.95.85,1.25,4.2.85,5.44-14.83,46.19,14.57,89.54,16.63,131.68,1.15,23.62-7.35,45.29-25.11,60.5-11.02,9.44-36.92,31.46-37.43,46.14l-1.58,45.92c-.77,22.28-1.6,62.44,1.7,83.59,1.2,7.68,9.09,12.98,16.03,15.06l33.62,10.05c9.41,2.81,15.64,15.23,10.2,24.23ZM282.13,244.97c26.2-7.97,44.15-29.8,44.28-58.59.15-32.27-31.75-89.35-18.16-132.29l-104.41-.06c11.41,44.98-14.09,89.14-17.84,125.24-3.31,31.82,15.88,58.31,45.86,66.51,17.12,4.68,33.18,4.39,50.27-.81ZM323.34,458.05c-4.87-8.06-11.79-6.08-17.71-8.38l-22.07-7.33c-11.98-3.98-21.69-16.03-21.7-29.4l-.04-112.15c0-16.31,5.87-29.6,16.18-42.2l-22.08.8-21.14-.63c7.59,10.98,13.77,21.54,14.22,34.6l.9,26.25.24,90.56c.09,32.06-32.3,35.68-58.05,43.08-1.57.45-3.24,3.27-2.71,4.9l133.96-.11Z"/>
  </g>
  <g id="ISO_Glass" class="st0">
    <path d="M171.82,424.3c-4.39-7.46-1.67-15.15,4.41-19.94,13.6-10.71,31.82-4.94,52.11-17.72,8.58-5.4,9.66-16.2,10.27-24.87,1.38-19.73-8.24-34.17-22.99-45.8l-14.86-11.72c-3.85-3.04-8.37-5.68-12.15-8.95-17.54-15.2-26.5-41.62-25.16-64.61,2.5-43.08,17.25-96.37,28.64-138.4,1.33-1.87,4.52-4.61,6.64-4.61l119.22.14c13.02,42.3,23.04,83.84,29.29,127.01,2.45,16.93,1.76,31.36-2.46,48.08-5.1,11.56-11.57,25.03-21.87,32.84l-25.78,19.55c-21.22,16.09-22.76,25.67-24.28,50.62-.7,11.55,3.13,20.71,14.93,24.63,9.48,3.15,19.49,5.74,29.73,7.38,7.98,1.28,15.63,4.9,19.78,11.8,2.18,3.63,2.71,11.61-.98,14.42l-164.51.14ZM298.21,298.19c12.84-4.95,21.74-14.2,29.42-25.84,8.53-12.94,10.25-28.06,9.9-44.04-2.54-23.25-6.18-45.76-11.96-68.54l-15.53-61.17-107.46-.14c-2.6,6.8-4.34,14.19-6.3,21.71l-6.71,25.74-4.56,19.37c-3.37,14.3-11.4,58.99-10.62,72.23,1.48,24.9,14.48,50.11,37.42,59.7,30,12.54,56.36,12.56,86.4.98ZM325.66,415.03c-4.51-7.59-10.74-6.67-16.69-8.04-21.42-7.82-42.94-6.14-47.14-31.2l1.07-23.04c.62-13.19,4.55-25.49,15.68-34.93l-45.13-.07,5.77,6.19c15.02,16.12,14.24,64.43-4.58,71.95-11.72,4.69-23.68,7.6-35.75,11.13-5.73,1.67-12.33.61-15.66,8.05l142.42-.04Z"/>
  </g>
  <g id="Tulip_Glass" class="st0">
    <path d="M337.55,452.85l-17.86.47-144.16.04c-6.31-9.16-.27-21.55,9.83-24.48l36.95-10.72c10.09-2.93,16.86-10.36,16.8-21.12l-.35-65.31c-.12-22.43-26.94-38.69-42.89-50.09-25.3-18.09-38.4-47.96-33.58-79.43,7.46-48.73,38.58-92.4,13.88-135.7-.74-1.3-.66-5.25.3-6.08s3.68-1.8,5.41-1.8l148.52.05c1.75,0,4.45.94,5.43,1.73,7.37,5.97-22.56,18.97-.72,86.39l7.55,23.31c13.47,41.58,13.18,83.5-25.61,111.08-18.2,12.94-43.07,27.88-43.66,52.05-.55,22.34-.66,44.44.07,66.51.32,9.85,7.89,15.98,16.26,18.37l37.24,10.66c10.15,2.9,14.97,13.88,10.6,24.07ZM283.61,284.23c35.98-8.93,60.45-40.23,56.11-77.83-2.2-19.06-9.13-37.11-15.05-55.51-7.95-27.64-13.61-51.13-2.59-81.2l-131.81-.04c5,14.99,8.24,27.77,5.95,41.71l-4.12,24.95-17.45,58.22c-12.24,40.84,13.28,79.28,53.66,89.51,18.75,4.75,35.4,5.12,55.3.19ZM307.88,434.78l-19.08-5.48c-9.88-2.84-22.07-10.52-24.37-21.83-3.49-17.17-2.63-34.91-1.94-52.35l1.18-30.05c.42-10.53,8.01-18.44,13.71-27.6l-22.19.53-20.82-.51c10.38,10.72,14.62,22.99,15.4,37.39,1.13,20.83.99,41.64.28,62.62-.46,13.76-8.58,25.99-21.56,29.83l-24.97,7.4c-6.29,1.86-13.35,1.08-17.91,8.25l141.09-.02c-4.43-7.34-11.84-6.18-18.83-8.19Z"/>
  </g>
  <g id="Snifter_Glass" class="st0">
    <path d="M341.7,418.21h-169.06c-4.76,0-5.69-7.58-4.55-10.6,2.63-6.97,7.06-12.44,14.39-14.44l36.34-9.92c11.5-3.14,18.41-11.2,18.75-23.46.24-8.49-1.25-16.89-7.44-23.34-17.46-18.2-39.15-15.16-65.85-37.3-47.75-39.59-30.93-99.91-11.65-149.71,6.83-17.66,13.69-34,22.45-50.89,1.34-2.58,5.61-4.77,8.68-4.77l145.28.09c3.5,0,7.63,4.4,9.21,7.61,17.86,36.21,42.98,96.6,40.28,136.7-2.2,32.64-21.04,60.04-50.36,73.96-17.52,8.32-35.01,11.87-46.65,24.55-8.06,8.78-8.92,21.59-4.86,32.9,9.68,26.95,77.72,10.18,65.05,48.62ZM360.97,264.57c8.55-18.7,7.51-38.83,3.96-59.73-8.25-34.85-21.68-67.75-37.28-100.05l-143.66.03c-13.51,28.69-25.73,57.17-34.05,87.78-5.23,19.76-7.77,39.13-3.6,58.89,13.77,49.35,63.98,64.85,110.08,64.68,40.18-.15,86.03-12.01,104.55-51.6ZM329.98,407.82c-1.35-3.42-4.74-5.31-8.49-6.19-25.34-5.95-59.9-10.34-57.76-43.2-1.49-11.7,3.53-21.75,11.86-31.2l-39.84-.05c11.49,10.88,14.67,25.27,11.94,39.54-1.9,11.2-8.68,20.67-19.86,24.65-12.27,4.37-24.84,7.24-37.83,10.24-3.87.89-7.15,3-9.18,6.24l149.17-.02Z"/>
  </g>
  <g id="Shot_Glass" class="st0">
    <path d="M315.7,389.46l-120.9-.12c-5.02,0-12.88-7.11-13.43-11.95l-7.15-63.24-9.42-83.57-10.89-97.28c-.55-4.92,3.55-10.66,9.18-10.67l184.44-.08c2.79,0,7.37,1.83,8.78,3.51,1.66,1.97,2.09,7.23,1.72,10.68l-13.48,123.75-6.39,57.87-6,53.47c-1.06,9.47-5.43,17.64-16.45,17.63ZM328.82,283.97l9.99-92.2,6.11-56.37-177.42.04,5.36,47.58,5.74,50.95,4.52,43.2c1.19,11.4,7.67,18.06,15.68,24.57,37.35,30.35,104.7,25.88,130.02-17.77ZM323.35,333.05c.92-7.98,1.26-15.85,1.22-22.76-12.74,11.6-26.37,17.82-42.21,21.37-35.72,5.59-66.61,2.26-95.43-21.99l6.71,59.56c.56,4.95,4.33,7.86,9.41,7.59l112.01-.13c3.05-5.28,4.48-10.84,5.12-16.36l3.15-27.28Z"/>
  </g>
  <g id="RockGlass">
    <path d="M167.93,390.93c-14.81-2.68-31.24-10.15-29.85-27.66l-23.99-190.58-3.56-26.91c-.47-3.57-1.03-8.43.19-12.04,3.51-10.34,44.92-14.77,55.8-15.84,59.16-5.84,118.04-5.13,177.33.18,16.24,1.45,31.09,3.71,46.46,8.03,4.77,1.34,9.72,5.06,11.28,9.59s-.11,8.94-.73,13.93l-27.01,215.58c-1.36,10.87-5.6,18.65-16.53,21.78-23.13,6.61-46.58,10.61-70.96,12-32.83,1.87-65.27,1.56-97.56-4.28l-20.87-3.78ZM260.51,149.05c35.58.41,69.14-2.03,103.55-6.44,8.64-1.11,16.37-3.21,24.38-7.02-13.11-5.09-25.69-7.43-39.06-8.55l-39.34-3.32c-18.24-1.54-35.68-.4-54.09-.34-34.54.1-68.06,2-102.3,5.56-1.93.2-31.36,3.98-28.38,7.03,9.74,9.96,114.29,12.84,135.24,13.08ZM205.28,332.03c43.09,3.38,71.49,2.84,114.69-1.78,13.85-1.48,42.01-6.42,49.26-19.89l20.64-164.05c-36.64,9.14-73.19,10.45-110.92,11.55-34.71,1.15-68.4.64-102.98-2.04-18.2-1.41-34.99-4.33-53.59-8.75l19.81,158.16c.69,5.51,2.84,9.68,7.4,12.66,14.14,9.26,38.54,12.8,55.69,14.14ZM355.36,376.77c6.21-2.72,7.24-6.83,7.91-12.25l4.72-38.41c-43.68,22.25-171.9,19.91-208.53,6.13l-15.45-5.81,3.95,32.04c.59,4.78,1.26,9.87,2.58,14.42,8.25,4.65,16.17,7.7,25.69,9.42,54.13,9.75,125.73,11.13,179.12-5.54Z"/>
  </g>
</svg>