<?xml version="1.0" encoding="UTF-8"?>
<svg id="Shot_Glass" xmlns="http://www.w3.org/2000/svg" version="1.1" viewBox="0 0 512 512">
  <!-- Generator: Adobe Illustrator 30.4.0, SVG Export Plug-In . SVG Version: 2.1.3 Build 80)  -->
  <path d="M315.7,389.46l-120.9-.12c-5.02,0-12.88-7.11-13.43-11.95l-7.15-63.24-9.42-83.57-10.89-97.28c-.55-4.92,3.55-10.66,9.18-10.67l184.44-.08c2.79,0,7.37,1.83,8.78,3.51,1.66,1.97,2.09,7.23,1.72,10.68l-13.48,123.75-6.39,57.87-6,53.47c-1.06,9.47-5.43,17.64-16.45,17.63ZM328.82,283.97l9.99-92.2,6.11-56.37-177.42.04,5.36,47.58,5.74,50.95,4.52,43.2c1.19,11.4,7.67,18.06,15.68,24.57,37.35,30.35,104.7,25.88,130.02-17.77ZM323.35,333.05c.92-7.98,1.26-15.85,1.22-22.76-12.74,11.6-26.37,17.82-42.21,21.37-35.72,5.59-66.61,2.26-95.43-21.99l6.71,59.56c.56,4.95,4.33,7.86,9.41,7.59l112.01-.13c3.05-5.28,4.48-10.84,5.12-16.36l3.15-27.28Z"/>
</svg>