<?xml version="1.0" encoding="UTF-8"?>
<svg id="Snifter_Glass" xmlns="http://www.w3.org/2000/svg" version="1.1" viewBox="0 0 512 512">
  <!-- Generator: Adobe Illustrator 30.4.0, SVG Export Plug-In . SVG Version: 2.1.3 Build 80)  -->
  <path d="M341.7,418.21h-169.06c-4.76,0-5.69-7.58-4.55-10.6,2.63-6.97,7.06-12.44,14.39-14.44l36.34-9.92c11.5-3.14,18.41-11.2,18.75-23.46.24-8.49-1.25-16.89-7.44-23.34-17.46-18.2-39.15-15.16-65.85-37.3-47.75-39.59-30.93-99.91-11.65-149.71,6.83-17.66,13.69-34,22.45-50.89,1.34-2.58,5.61-4.77,8.68-4.77l145.28.09c3.5,0,7.63,4.4,9.21,7.61,17.86,36.21,42.98,96.6,40.28,136.7-2.2,32.64-21.04,60.04-50.36,73.96-17.52,8.32-35.01,11.87-46.65,24.55-8.06,8.78-8.92,21.59-4.86,32.9,9.68,26.95,77.72,10.18,65.05,48.62ZM360.97,264.57c8.55-18.7,7.51-38.83,3.96-59.73-8.25-34.85-21.68-67.75-37.28-100.05l-143.66.03c-13.51,28.69-25.73,57.17-34.05,87.78-5.23,19.76-7.77,39.13-3.6,58.89,13.77,49.35,63.98,64.85,110.08,64.68,40.18-.15,86.03-12.01,104.55-51.6ZM329.98,407.82c-1.35-3.42-4.74-5.31-8.49-6.19-25.34-5.95-59.9-10.34-57.76-43.2-1.49-11.7,3.53-21.75,11.86-31.2l-39.84-.05c11.49,10.88,14.67,25.27,11.94,39.54-1.9,11.2-8.68,20.67-19.86,24.65-12.27,4.37-24.84,7.24-37.83,10.24-3.87.89-7.15,3-9.18,6.24l149.17-.02Z"/>
</svg>