<?xml version="1.0" encoding="UTF-8"?>
<svg id="Tulip_Glass" xmlns="http://www.w3.org/2000/svg" version="1.1" viewBox="0 0 512 512">
  <!-- Generator: Adobe Illustrator 30.4.0, SVG Export Plug-In . SVG Version: 2.1.3 Build 80)  -->
  <path d="M337.55,452.85l-17.86.47-144.16.04c-6.31-9.16-.27-21.55,9.83-24.48l36.95-10.72c10.09-2.93,16.86-10.36,16.8-21.12l-.35-65.31c-.12-22.43-26.94-38.69-42.89-50.09-25.3-18.09-38.4-47.96-33.58-79.43,7.46-48.73,38.58-92.4,13.88-135.7-.74-1.3-.66-5.25.3-6.08s3.68-1.8,5.41-1.8l148.52.05c1.75,0,4.45.94,5.43,1.73,7.37,5.97-22.56,18.97-.72,86.39l7.55,23.31c13.47,41.58,13.18,83.5-25.61,111.08-18.2,12.94-43.07,27.88-43.66,52.05-.55,22.34-.66,44.44.07,66.51.32,9.85,7.89,15.98,16.26,18.37l37.24,10.66c10.15,2.9,14.97,13.88,10.6,24.07ZM283.61,284.23c35.98-8.93,60.45-40.23,56.11-77.83-2.2-19.06-9.13-37.11-15.05-55.51-7.95-27.64-13.61-51.13-2.59-81.2l-131.81-.04c5,14.99,8.24,27.77,5.95,41.71l-4.12,24.95-17.45,58.22c-12.24,40.84,13.28,79.28,53.66,89.51,18.75,4.75,35.4,5.12,55.3.19ZM307.88,434.78l-19.08-5.48c-9.88-2.84-22.07-10.52-24.37-21.83-3.49-17.17-2.63-34.91-1.94-52.35l1.18-30.05c.42-10.53,8.01-18.44,13.71-27.6l-22.19.53-20.82-.51c10.38,10.72,14.62,22.99,15.4,37.39,1.13,20.83.99,41.64.28,62.62-.46,13.76-8.58,25.99-21.56,29.83l-24.97,7.4c-6.29,1.86-13.35,1.08-17.91,8.25l141.09-.02c-4.43-7.34-11.84-6.18-18.83-8.19Z"/>
</svg>